<svg version="1.1" id="Layer_1" xmlns="http://www.w3.org/2000/svg" xmlns:xlink="http://www.w3.org/1999/xlink" x="0px" y="0px"
	 width="100%" viewBox="0 0 567 567" enable-background="new 0 0 567 567" xml:space="preserve">
<path fill="#000000" opacity="1.000000" stroke="none" 
	d="
M544.000000,1.000001 
	C551.998047,1.000000 559.996033,1.000000 567.995605,1.000000 
	C567.997070,189.951172 567.997070,378.902344 567.997070,567.926758 
	C379.095703,567.926758 190.191391,567.926758 1.143532,567.926758 
	C1.143532,379.000092 1.143532,190.000061 1.143532,1.000000 
	C14.402398,1.000000 27.732540,1.000000 41.776882,1.348843 
	C52.295609,1.798071 62.100060,1.928991 71.904778,1.953706 
	C72.935707,1.956304 73.968224,1.332946 75.000000,1.000000 
	C102.354225,1.000000 129.708450,1.000000 157.776886,1.348840 
	C178.793884,1.784271 199.096680,1.878207 219.399567,1.917081 
	C219.932465,1.918102 220.466507,1.319156 221.000000,1.000002 
	C223.041672,1.000000 225.083328,1.000000 227.808044,1.348839 
	C234.300171,1.798309 240.110931,2.024917 245.917664,1.947914 
	C248.948776,1.907719 251.972778,1.333190 255.000000,1.000000 
	C260.354919,1.000000 265.709869,1.000000 271.777954,1.348846 
	C281.629578,1.798304 290.768036,1.941937 299.906647,1.952938 
	C301.270721,1.954580 302.635529,1.333171 304.000000,0.999998 
	C318.354218,1.000000 332.708466,1.000000 347.776886,1.348846 
	C364.794037,1.784273 381.096924,1.879991 397.399994,1.916808 
	C397.932617,1.918011 398.466644,1.319142 399.000000,0.999999 
	C399.444458,1.000000 399.888885,1.000000 400.912231,1.348846 
	C411.961609,1.794070 422.432098,1.909646 432.902832,1.943628 
	C433.600830,1.945894 434.300903,1.328947 435.000000,1.000003 
	C442.687592,1.000000 450.375153,1.000000 458.776917,1.348847 
	C459.978699,1.791243 460.466217,1.966305 460.953888,1.966671 
	C487.602936,1.986668 514.252014,2.003215 540.901001,1.956637 
	C541.934509,1.954830 542.967041,1.332949 544.000000,1.000001 
M320.436951,146.259903 
	C318.981812,146.130295 317.526672,146.000687 315.367920,145.492676 
	C312.585266,145.311768 309.802582,145.130844 306.408813,144.439957 
	C303.923889,144.437317 301.438995,144.434662 298.165588,144.321411 
	C297.117401,144.409851 296.069214,144.498291 294.121155,144.316757 
	C288.087006,144.396622 282.052826,144.476501 275.115173,144.300140 
	C268.748566,144.372803 262.381989,144.445465 255.107971,144.279373 
	C249.076324,144.355865 243.044662,144.432373 236.104950,144.274155 
	C230.074066,144.350494 224.043182,144.426819 217.103577,144.268356 
	C209.079437,144.337402 201.055313,144.406448 192.113602,144.242828 
	C184.419922,144.305939 176.726227,144.369049 168.356125,144.216476 
	C167.631119,144.818680 166.906113,145.420898 166.070740,146.951309 
	C166.057709,210.659439 166.044693,274.367554 165.288223,338.479004 
	C154.531952,338.686951 143.776123,338.921661 133.019226,339.090424 
	C128.322250,339.164124 123.623146,339.102814 118.925003,339.102814 
	C118.759262,339.528381 118.593521,339.953949 118.427780,340.379517 
	C134.288589,354.244995 150.149399,368.110443 166.024811,382.916138 
	C166.024811,396.826447 166.024811,410.736755 166.024811,424.997772 
	C172.577972,424.997772 178.404709,424.688049 184.183243,425.083038 
	C190.217560,425.495605 195.147079,423.327332 200.477722,419.758362 
	C200.688995,419.655548 200.900253,419.552765 201.433167,419.516754 
	C201.657532,419.398773 201.752396,419.214020 202.397705,418.721222 
	C209.136215,414.473236 215.874710,410.225250 223.105270,405.444031 
	C229.166595,400.997253 235.227921,396.550476 241.868317,391.822052 
	C249.579575,384.549469 257.290833,377.276917 265.611206,369.724640 
	C270.501678,364.184357 275.392151,358.644104 280.858734,352.799072 
	C286.882080,344.192627 292.905396,335.586182 299.467590,326.569763 
	C304.586914,317.040344 309.706238,307.510925 315.116547,297.690399 
	C315.116547,297.690399 315.181915,297.283966 315.680298,296.818237 
	C316.065186,295.543335 316.450073,294.268433 316.981842,292.269379 
	C319.313934,286.796997 321.645996,281.324615 324.229126,275.731262 
	C324.421722,275.587555 324.435272,275.428802 324.736786,274.586761 
	C324.809052,274.050781 324.881317,273.514771 325.456970,272.468170 
	C328.279236,262.525818 331.681610,252.703674 333.773407,242.609940 
	C336.256989,230.625809 338.712006,218.451614 339.194824,206.281082 
	C339.883820,188.911972 338.791931,171.470856 338.404449,154.061737 
	C338.339142,151.127304 337.221558,149.168289 333.748718,148.907852 
	C330.475067,148.662369 327.251740,147.744873 323.567963,146.885101 
	C323.567963,146.885101 323.075226,146.962463 322.677002,146.658661 
	C322.199127,146.641327 321.721283,146.624008 320.436951,146.259903 
M328.952118,327.416229 
	C305.791687,367.088409 274.697876,399.241638 236.653900,424.034882 
	C265.940979,424.034882 295.369507,425.889526 324.486542,423.665649 
	C394.540009,418.315216 448.545807,360.691040 450.467377,290.114563 
	C451.870941,238.563980 430.940796,197.526733 388.232330,168.158081 
	C381.495483,163.525467 373.940063,160.083282 365.975616,155.652618 
	C371.514557,217.406906 359.601379,274.092651 328.952118,327.416229 
z"/>
<path fill="#514A73" opacity="1.000000" stroke="none" 
	d="
M543.531372,1.000001 
	C542.967041,1.332949 541.934509,1.954830 540.901001,1.956637 
	C514.252014,2.003215 487.602936,1.986668 460.953888,1.966671 
	C460.466217,1.966305 459.978699,1.791243 459.245544,1.348847 
	C487.020905,1.000000 515.041809,1.000000 543.531372,1.000001 
z"/>
<path fill="#514A73" opacity="1.000000" stroke="none" 
	d="
M220.531342,1.000002 
	C220.466507,1.319156 219.932465,1.918102 219.399567,1.917081 
	C199.096680,1.878207 178.793884,1.784271 158.245544,1.348840 
	C178.687561,1.000000 199.375122,1.000000 220.531342,1.000002 
z"/>
<path fill="#514A73" opacity="1.000000" stroke="none" 
	d="
M398.531342,0.999999 
	C398.466644,1.319142 397.932617,1.918011 397.399994,1.916808 
	C381.096924,1.879991 364.794037,1.784273 348.245544,1.348846 
	C364.687561,1.000000 381.375122,1.000000 398.531342,0.999999 
z"/>
<path fill="#514A73" opacity="1.000000" stroke="none" 
	d="
M434.531342,1.000003 
	C434.300903,1.328947 433.600830,1.945894 432.902832,1.943628 
	C422.432098,1.909646 411.961609,1.794070 401.245544,1.348846 
	C412.020905,1.000000 423.041779,1.000000 434.531342,1.000003 
z"/>
<path fill="#514A73" opacity="1.000000" stroke="none" 
	d="
M74.531342,1.000000 
	C73.968224,1.332946 72.935707,1.956304 71.904778,1.953706 
	C62.100060,1.928991 52.295609,1.798071 42.245541,1.348843 
	C52.687561,1.000000 63.375122,1.000000 74.531342,1.000000 
z"/>
<path fill="#514A73" opacity="1.000000" stroke="none" 
	d="
M303.531342,0.999998 
	C302.635529,1.333171 301.270721,1.954580 299.906647,1.952938 
	C290.768036,1.941937 281.629578,1.798304 272.245544,1.348846 
	C282.354218,1.000000 292.708466,1.000000 303.531342,0.999998 
z"/>
<path fill="#514A73" opacity="1.000000" stroke="none" 
	d="
M254.531342,1.000000 
	C251.972778,1.333190 248.948776,1.907719 245.917664,1.947914 
	C240.110931,2.024917 234.300171,1.798309 228.245544,1.348839 
	C236.687561,1.000000 245.375137,1.000000 254.531342,1.000000 
z"/>
<path fill="#FEFEFE" opacity="1.000000" stroke="none" 
	d="
M329.127716,327.095245 
	C359.601379,274.092651 371.514557,217.406906 365.975616,155.652618 
	C373.940063,160.083282 381.495483,163.525467 388.232330,168.158081 
	C430.940796,197.526733 451.870941,238.563980 450.467377,290.114563 
	C448.545807,360.691040 394.540009,418.315216 324.486542,423.665649 
	C295.369507,425.889526 265.940979,424.034882 236.653900,424.034882 
	C274.697876,399.241638 305.791687,367.088409 329.127716,327.095245 
z"/>
<path fill="#5D3B91" opacity="1.000000" stroke="none" 
	d="
M193.031174,144.475494 
	C201.055313,144.406448 209.079437,144.337402 217.538116,144.769104 
	C217.648422,147.885605 217.042526,150.501175 217.040909,153.117111 
	C216.990875,233.864090 217.006744,314.611084 216.967789,395.358063 
	C216.966599,397.817017 216.413330,400.271210 216.265503,402.736481 
	C216.194138,403.926666 216.467377,405.137512 216.582458,406.317200 
	C219.000427,406.180908 220.806808,406.079071 222.613205,405.977264 
	C215.874710,410.225250 209.136215,414.473236 201.946228,418.909912 
	C201.346924,419.193817 201.219177,419.310944 201.111496,419.449951 
	C200.900253,419.552765 200.688995,419.655548 199.767593,419.862457 
	C196.569199,419.966553 194.080948,419.966553 190.709045,419.966553 
	C190.195633,416.348389 189.081665,412.136169 189.076340,407.922577 
	C188.973282,326.525635 188.982101,245.128540 189.033340,163.731506 
	C189.037521,157.085114 187.300034,149.975662 193.031174,144.475494 
z"/>
<path fill="#57358C" opacity="1.000000" stroke="none" 
	d="
M192.572388,144.359161 
	C187.300034,149.975662 189.037521,157.085114 189.033340,163.731506 
	C188.982101,245.128540 188.973282,326.525635 189.076340,407.922577 
	C189.081665,412.136169 190.195633,416.348389 190.709045,419.966553 
	C194.080948,419.966553 196.569199,419.966553 199.425797,419.948364 
	C195.147079,423.327332 190.217560,425.495605 184.183243,425.083038 
	C178.404709,424.688049 172.577972,424.997772 166.024811,424.997772 
	C166.024811,410.736755 166.024811,396.826447 166.013977,382.084381 
	C162.951874,377.456024 160.212479,373.342621 156.764664,369.948853 
	C153.059113,366.301361 148.617950,363.411835 144.651215,360.012543 
	C143.459824,358.991608 142.781677,357.371735 141.521759,355.515533 
	C143.311340,355.240845 144.218292,355.318329 144.878098,354.951385 
	C145.963776,354.347717 146.889374,353.456238 147.882446,352.686096 
	C146.415680,351.932648 145.009094,350.939178 143.451370,350.548584 
	C142.861206,350.400635 141.755585,352.285553 141.172958,352.134308 
	C139.151596,351.609528 137.256729,350.597534 135.313751,349.770874 
	C138.175659,346.907074 140.636078,342.346680 143.987946,341.553497 
	C149.894394,340.155762 156.353333,341.208496 162.560623,340.866364 
	C163.765244,340.799988 164.877060,339.049408 166.031677,338.075684 
	C166.044693,274.367554 166.057709,210.659439 166.436630,146.476868 
	C167.545868,145.479004 168.289200,144.955582 169.032547,144.432159 
	C176.726227,144.369049 184.419922,144.305939 192.572388,144.359161 
z"/>
<path fill="#634396" opacity="1.000000" stroke="none" 
	d="
M222.859238,405.710632 
	C220.806808,406.079071 219.000427,406.180908 216.582458,406.317200 
	C216.467377,405.137512 216.194138,403.926666 216.265503,402.736481 
	C216.413330,400.271210 216.966599,397.817017 216.967789,395.358063 
	C217.006744,314.611084 216.990875,233.864090 217.040909,153.117111 
	C217.042526,150.501175 217.648422,147.885605 217.992462,144.886505 
	C224.043182,144.426819 230.074066,144.350494 236.556778,144.820801 
	C237.005737,223.458267 237.007065,301.549103 236.977814,379.639954 
	C236.977020,381.780762 236.970367,384.011383 236.404724,386.043823 
	C235.144836,390.570679 236.876862,392.328003 241.289230,392.103699 
	C235.227921,396.550476 229.166595,400.997253 222.859238,405.710632 
z"/>
<path fill="#6A4B9A" opacity="1.000000" stroke="none" 
	d="
M241.578766,391.962891 
	C236.876862,392.328003 235.144836,390.570679 236.404724,386.043823 
	C236.970367,384.011383 236.977020,381.780762 236.977814,379.639954 
	C237.007065,301.549103 237.005737,223.458267 237.010803,144.938141 
	C243.044662,144.432373 249.076324,144.355865 255.558945,144.827927 
	C256.006622,183.708633 256.078369,222.040970 255.978821,260.372864 
	C255.879990,298.435059 256.422241,336.500031 255.640411,373.991333 
	C258.578827,372.739899 261.790466,371.372131 265.002106,370.004333 
	C257.290833,377.276917 249.579575,384.549469 241.578766,391.962891 
z"/>
<path fill="#71539F" opacity="1.000000" stroke="none" 
	d="
M265.306641,369.864502 
	C261.790466,371.372131 258.578827,372.739899 255.640411,373.991333 
	C256.422241,336.500031 255.879990,298.435059 255.978821,260.372864 
	C256.078369,222.040970 256.006622,183.708633 256.012634,144.947296 
	C262.381989,144.445465 268.748566,144.372803 275.544769,144.808929 
	C275.649597,147.935150 275.043518,150.552307 275.041229,153.169998 
	C274.988007,214.489685 274.979431,275.809479 275.044312,337.129120 
	C275.048859,341.418549 275.388092,345.765778 276.210388,349.960938 
	C276.458344,351.226013 278.864899,352.068024 280.282623,353.103821 
	C275.392151,358.644104 270.501678,364.184357 265.306641,369.864502 
z"/>
<path fill="#795EA5" opacity="1.000000" stroke="none" 
	d="
M280.570679,352.951447 
	C278.864899,352.068024 276.458344,351.226013 276.210388,349.960938 
	C275.388092,345.765778 275.048859,341.418549 275.044312,337.129120 
	C274.979431,275.809479 274.988007,214.489685 275.041229,153.169998 
	C275.043518,150.552307 275.649597,147.935150 275.996521,144.937042 
	C282.052826,144.476501 288.087006,144.396622 294.566650,144.876251 
	C295.008118,201.796555 295.010071,258.157379 294.979797,314.518219 
	C294.978455,316.990540 294.700989,319.464111 294.518341,321.934631 
	C294.282623,325.122955 295.424347,327.076019 298.928711,326.979706 
	C292.905396,335.586182 286.882080,344.192627 280.570679,352.951447 
z"/>
<path fill="#8268AB" opacity="1.000000" stroke="none" 
	d="
M299.198151,326.774719 
	C295.424347,327.076019 294.282623,325.122955 294.518341,321.934631 
	C294.700989,319.464111 294.978455,316.990540 294.979797,314.518219 
	C295.010071,258.157379 295.008118,201.796555 295.016602,145.011230 
	C296.069214,144.498291 297.117401,144.409851 298.893250,144.585022 
	C302.087250,144.882416 304.553589,144.916168 307.019928,144.949936 
	C309.802582,145.130844 312.585266,145.311768 315.511780,145.982956 
	C314.437103,149.695984 312.174652,152.913208 312.157562,156.142349 
	C311.923615,200.287018 312.000000,244.433365 312.000000,288.579285 
	C312.000000,290.193390 312.000000,291.807495 312.000000,293.937042 
	C314.048767,293.537262 315.441864,293.265411 316.834961,292.993561 
	C316.450073,294.268433 316.065186,295.543335 315.276855,296.805054 
	C314.390869,296.850281 313.908386,296.908661 313.425873,296.967041 
	C313.892426,297.305206 314.359009,297.643341 314.825562,297.981506 
	C309.706238,307.510925 304.586914,317.040344 299.198151,326.774719 
z"/>
<path fill="#8971B1" opacity="1.000000" stroke="none" 
	d="
M316.908386,292.631470 
	C315.441864,293.265411 314.048767,293.537262 312.000000,293.937042 
	C312.000000,291.807495 312.000000,290.193390 312.000000,288.579285 
	C312.000000,244.433365 311.923615,200.287018 312.157562,156.142349 
	C312.174652,152.913208 314.437103,149.695984 315.863586,146.172150 
	C317.526672,146.000687 318.981812,146.130295 321.047668,146.541641 
	C322.130676,146.869751 322.602966,146.916107 323.075226,146.962463 
	C323.075226,146.962463 323.567963,146.885101 323.795227,147.369308 
	C324.348297,150.980255 324.949982,154.106354 324.957245,157.233841 
	C325.028229,187.811935 325.025177,218.390305 324.961700,248.968445 
	C324.955231,252.086136 324.153900,255.205338 324.184967,258.319214 
	C324.233673,263.207825 324.677216,268.092468 324.953552,272.978790 
	C324.881317,273.514771 324.809052,274.050781 324.454498,275.017822 
	C324.172211,275.448853 323.978058,275.852234 323.978058,275.852234 
	C321.645996,281.324615 319.313934,286.796997 316.908386,292.631470 
z"/>
<path fill="#8D78B3" opacity="1.000000" stroke="none" 
	d="
M325.205261,272.723480 
	C324.677216,268.092468 324.233673,263.207825 324.184967,258.319214 
	C324.153900,255.205338 324.955231,252.086136 324.961700,248.968445 
	C325.025177,218.390305 325.028229,187.811935 324.957245,157.233841 
	C324.949982,154.106354 324.348297,150.980255 324.014374,147.488266 
	C327.251740,147.744873 330.475067,148.662369 333.748718,148.907852 
	C337.221558,149.168289 338.339142,151.127304 338.404449,154.061737 
	C338.791931,171.470856 339.883820,188.911972 339.194824,206.281082 
	C338.712006,218.451614 336.256989,230.625809 333.773407,242.609940 
	C331.681610,252.703674 328.279236,262.525818 325.205261,272.723480 
z"/>
<path fill="#4C2F7F" opacity="1.000000" stroke="none" 
	d="
M165.659943,338.277344 
	C164.877060,339.049408 163.765244,340.799988 162.560623,340.866364 
	C156.353333,341.208496 149.894394,340.155762 143.987946,341.553497 
	C140.636078,342.346680 138.175659,346.907074 135.313751,349.770874 
	C137.256729,350.597534 139.151596,351.609528 141.172958,352.134308 
	C141.755585,352.285553 142.861206,350.400635 143.451370,350.548584 
	C145.009094,350.939178 146.415680,351.932648 147.882446,352.686096 
	C146.889374,353.456238 145.963776,354.347717 144.878098,354.951385 
	C144.218292,355.318329 143.311340,355.240845 141.521759,355.515533 
	C142.781677,357.371735 143.459824,358.991608 144.651215,360.012543 
	C148.617950,363.411835 153.059113,366.301361 156.764664,369.948853 
	C160.212479,373.342621 162.951874,377.456024 166.006683,381.614258 
	C150.149399,368.110443 134.288589,354.244995 118.427780,340.379517 
	C118.593521,339.953949 118.759262,339.528381 118.925003,339.102814 
	C123.623146,339.102814 128.322250,339.164124 133.019226,339.090424 
	C143.776123,338.921661 154.531952,338.686951 165.659943,338.277344 
z"/>
<path fill="#4C2F7F" opacity="1.000000" stroke="none" 
	d="
M306.714355,144.694946 
	C304.553589,144.916168 302.087250,144.882416 299.287476,144.640335 
	C301.438995,144.434662 303.923889,144.437317 306.714355,144.694946 
z"/>
<path fill="#4C2F7F" opacity="1.000000" stroke="none" 
	d="
M168.694336,144.324310 
	C168.289200,144.955582 167.545868,145.479004 166.491821,146.012756 
	C166.906113,145.420898 167.631119,144.818680 168.694336,144.324310 
z"/>
<path fill="#8971B1" opacity="1.000000" stroke="none" 
	d="
M314.971069,297.835938 
	C314.359009,297.643341 313.892426,297.305206 313.425873,296.967041 
	C313.908386,296.908661 314.390869,296.850281 315.027649,297.037933 
	C315.181915,297.283966 315.116547,297.690399 314.971069,297.835938 
z"/>
<path fill="#8D78B3" opacity="1.000000" stroke="none" 
	d="
M322.876099,146.810562 
	C322.602966,146.916107 322.130676,146.869751 321.450928,146.715027 
	C321.721283,146.624008 322.199127,146.641327 322.876099,146.810562 
z"/>
<path fill="#8D78B3" opacity="1.000000" stroke="none" 
	d="
M324.103577,275.791748 
	C323.978058,275.852234 324.172211,275.448853 324.221008,275.351959 
	C324.435272,275.428802 324.421722,275.587555 324.103577,275.791748 
z"/>
<path fill="#57358C" opacity="1.000000" stroke="none" 
	d="
M201.272339,419.483337 
	C201.219177,419.310944 201.346924,419.193817 201.606262,419.030518 
	C201.752396,419.214020 201.657532,419.398773 201.272339,419.483337 
z"/>
</svg>